<?xml version="1.0" encoding="UTF-8" standalone="no"?>
<!-- Generated by IcoMoon.io -->

<svg
   xmlns:dc="http://purl.org/dc/elements/1.1/"
   xmlns:cc="http://creativecommons.org/ns#"
   xmlns:rdf="http://www.w3.org/1999/02/22-rdf-syntax-ns#"
   xmlns:svg="http://www.w3.org/2000/svg"
   xmlns="http://www.w3.org/2000/svg"
   xmlns:sodipodi="http://sodipodi.sourceforge.net/DTD/sodipodi-0.dtd"
   xmlns:inkscape="http://www.inkscape.org/namespaces/inkscape"
   version="1.1"
   width="1024"
   height="1024"
   viewBox="0 0 1024 1024"
   id="svg248"
   sodipodi:docname="sword (3).svg"
   inkscape:version="0.92.2 (5c3e80d, 2017-08-06)">
  <metadata
     id="metadata254">
    <rdf:RDF>
      <cc:Work
         rdf:about="">
        <dc:format>image/svg+xml</dc:format>
        <dc:type
           rdf:resource="http://purl.org/dc/dcmitype/StillImage" />
        <dc:title></dc:title>
      </cc:Work>
    </rdf:RDF>
  </metadata>
  <defs
     id="defs252" />
  <sodipodi:namedview
     pagecolor="#ffffff"
     bordercolor="#666666"
     borderopacity="1"
     objecttolerance="10"
     gridtolerance="10"
     guidetolerance="10"
     inkscape:pageopacity="0"
     inkscape:pageshadow="2"
     inkscape:window-width="2560"
     inkscape:window-height="1017"
     id="namedview250"
     showgrid="false"
     inkscape:zoom="0.23046875"
     inkscape:cx="512"
     inkscape:cy="512"
     inkscape:window-x="1912"
     inkscape:window-y="-8"
     inkscape:window-maximized="1"
     inkscape:current-layer="svg248" />
  <g
     id="icomoon-ignore" />
  <path
     id="path246"
     d="m 446.836,595.782 c -4.766,0 -9.533,-1.825 -13.163,-5.455 -7.28,-7.28 -7.28,-19.046 0,-26.326 L 997.655,0 H 885.797 L 319.711,566.104 451.36,697.753 1023.999,131.649 V 26.326 L 459.998,590.327 c -3.631,3.631 -8.397,5.455 -13.163,5.455 z M 143.844,856.436 c 13.107,0 23.72,10.612 23.72,23.72 v 48.724 l 204.8,-204.8 -78.997,-78.997 -211.335,211.354 h 61.812 z m 0,167.564 H 23.719 c -13.107,0 -23.72,-10.612 -23.72,-23.72 V 880.155 c 0,-13.107 10.612,-23.72 23.72,-23.72 h 120.125 c 13.107,0 23.72,10.612 23.72,23.72 v 120.125 c 0,13.107 -10.612,23.72 -23.72,23.72 z M 490.85,842.566 174.881,526.597 184.879,396.661 c 0.707,-9.086 13.368,-10.631 16.235,-1.992 l 26.419,79.276 315.969,315.969 66.392,16.589 c 8.788,2.197 8.285,14.839 -0.652,16.328 l -118.393,19.735 z" />
</svg>
